# xmcd
#
# Track frame offsets: 
#        150
#        15824
#        31840
#        48068
#        65508
#        83096
#        101549
#        126418
#        147712
#        163091
#        180040
#        197252
#        210903
#        240553
#        264778
#        286828
#        326191
#
# Disc length: 4924 seconds
#
# Revision: 0
# Processed by: cddbd v1.5.2PL0 Copyright (c) Steve Scherf et al.
# Submitted via: ExactAudioCopy v1.0b6
#
DISCID=d5133a11
DTITLE=Coleman Hawkins - Complete Albums Collection 1957-1959 (2016)
DYEAR=2016
DGENRE=Jazz Sax Tenor
TTITLE0=I'll Never Be The Same
TTITLE1=You're Blase
TTITLE2=I Wished On The Moon
TTITLE3=How Long Has This Been Going On?
TTITLE4=Like Someone In Love
TTITLE5=My Melancholy Baby
TTITLE6=Ill Wind
TTITLE7=In A Mellow Tone
TTITLE8=There's No You
TTITLE9=The World Is Waiting For The Sunrise
TTITLE10=Somebody Loves Me
TTITLE11=Blues For Rene
TTITLE12=Maria
TTITLE13=Sunday
TTITLE14=Hanid
TTITLE15=Honey Flower
TTITLE16=Nabob
EXTD=
EXTT0=
EXTT1=
EXTT2=
EXTT3=
EXTT4=
EXTT5=
EXTT6=
EXTT7=
EXTT8=
EXTT9=
EXTT10=
EXTT11=
EXTT12=
EXTT13=
EXTT14=
EXTT15=
EXTT16=
PLAYORDER=
